<mxfile host="app.diagrams.net" modified="2022-07-25T13:47:25.282Z" agent="5.0 (Macintosh; Intel Mac OS X 10_15_7) AppleWebKit/537.36 (KHTML, like Gecko) Chrome/103.0.0.0 Safari/537.36" etag="uHKjUxDO3JVKeNncMZEY" version="20.2.0" type="github">
  <diagram id="32-pa-txBFV0kHlqUb_8" name="第 1 页">
    <mxGraphModel dx="902" dy="655" grid="1" gridSize="10" guides="1" tooltips="1" connect="1" arrows="1" fold="1" page="1" pageScale="1" pageWidth="827" pageHeight="1169" math="0" shadow="0">
      <root>
        <mxCell id="0" />
        <mxCell id="1" parent="0" />
        <mxCell id="loRNoYz4iTdSa8djhqPE-1" value="" style="rounded=1;whiteSpace=wrap;html=1;" vertex="1" parent="1">
          <mxGeometry x="240" y="210" width="100" height="80" as="geometry" />
        </mxCell>
        <mxCell id="loRNoYz4iTdSa8djhqPE-2" value="" style="ellipse;whiteSpace=wrap;html=1;aspect=fixed;" vertex="1" parent="1">
          <mxGeometry x="190" y="80" width="30" height="30" as="geometry" />
        </mxCell>
        <mxCell id="loRNoYz4iTdSa8djhqPE-3" value="" style="shape=image;verticalLabelPosition=bottom;labelBackgroundColor=default;verticalAlign=top;aspect=fixed;imageAspect=0;image=data:image/png,iVBORw0KGgoAAAANSUhEUgAAA2sAAAHKCAYAAACdatPyAAAAAXNSR0IArs4c6QAAAARnQU1BAACxjwv8YQUAAAAJcEhZcwAADsMAAA7DAcdvqGQAAH08SURBVHhe7b1JbCxbdp6rkWcaaaSRZxpp5JFmNXEN/GqkgQXBBgoWIJQMGCU9+8GuB2hg6dmAJEv2K8N4sq2uCnbpqppbpapb995zT8/usCeTZLLv+77vu3PX2/8Obp5gMpIMksnMyOT34axDMjOaHWvviFj/bn/BAAAAAAAAIHMg1gAAAAAAADIIYg0AAAAAACCDINYAAAAAAAAyCGINAAAAAAAggyDWAAAAAAAAMghiDQAAAAAAIIMg1gAAAAAAADIIYg0AAAAAACCDINYAAAAAAAAyCGINAAAAAAAggyDWAAAAAAAAMghiDQAAAAAAIIMg1gAAAAAAADIIYg0AAAAAACCDINYAAAAAAAAyCGINAAAAAAAggyDWAAAAAAAAMghiDQAAAAAAIIMg1gAAAAAAADIIYg0AAAAAACCDINYAAAAAAAAyCGINAAAAAAAggyDWAAAAAAAAMghiDQAAAAAAIIMg1gAAAAAAADIIYg0AAAAAACCDINYAAAAAAAAyCGINAAAAAAAggyDWAAAAAAAAMghiDQAAAAAAIIMg1gAAAAAAADIIYg0AAAAAACCDINYAAAAAAAAyCGINAAAAAAAggyDWAAAAAAAAMghiDQAAAAAAIIMg1gAAAAAAADIIYg0AAAAAACCDINYAAAAAAAAyCGINAAAAAAAggyDWAAAAAAAAMghiDQAAAAAAIIMg1gAAAAAAADIIYg0AAAAAACCDINYAAAAAAAAyCGINAAAAAAAggyDWAAAAAAAAMghiDQAAAAAAIIMg1gAAAAAAADIIYg0AAAAAACCDINYAAAAAAAAyCGINAAAAAAAggyDWAAAAAAAAMghiDQAAAAAAIIMg1gAAAAAAADIIYg0AAAAAACCDINYAAAAAAAAyCGINAAAAAAAggyDWAAAAAAAAMghiDQAAAAAAIIMg1gAAAAAAADIIYg0AAAAAACCDINYAAAAAAAAyCGINAAAAAAAggyDWAAAAAAAAMkjVi7Xz83NbWV21sbExGxgYsFwuZ62trdiFyR8DA4M2MjJiS8vLdnJ6euE5KCX7+wc2v7Bgg4ODlMMCK3cZ5Jlws5Ef2bGQF/LL3Nyc7e7t2ZdfXjgOAADAUdViTcFxV1eXjU9M2Oraum1u7djB4ZGdnn9pZ5i3/YMj29zesfWNTZucnPL+mpmZtfP37wkKSoCCq97eXuvr67PpmRlXBrcphwVWzjLIM+F2Iz+yYyEv5JfZ2TnL5/u9v7a2tozHMwAAiKoUaweHh9bf3++D45Ozc2fv7djZ0ekHOzw5x5zFfSIfnZx9abNz89aXz9vu7h4BwT05c+VucnLSB1f7Bwd29v5L799j59+4z5Py5KlZ3B+PVQZ5JqS3uE/Ij8rapS+c6dkhPx0en9jw8LCNjI7ayckJlWoAAE+cqhNr6k6jVoydnV3/YgsvuoMT2flVO37iVugP5yP5Sj7b2T2wvAumVlZWEWx3ZHNry7emLS4tRSLtwqfX/X1hSXmTYPtH5zblgtvurnbfRaon12FT09O2n7Bt1dg1f5S+DPJMuIMV+oP8qJxd8UXwTeQvCdu19U3r6em1zc1NntEAAE+YqhJrqq3t68u74DiqqQ1BQAg2wk+96LAPFvdN3F+qUdd4ia2tbfuS6ttUqBVtYHDQjk5O7eQ8akULPo37WD+T8qKYHTkbHOyzmaHP7WjmO/blwv+0g+nvur+fuTzq9cfTNkn7ZsG2dvdtdmHRpmdmbW1z+9r1x/0S99VDy+BjPhNWXLA80N8TCeceJ5wnx10wfXbv42XJ4r6J+yvL+VGrJn8EO7wQz5fmnjMjI6O2seEEG89oAIAnSdWINb2m1OVse2fvygvOdx1R///3kZ3HzP27l21sbNnk5JgNDvTY7NycD8zP3ydvm2WL+8L7x/lJwVjcfzv7R9bT22unZ+cEA7egiRiibo9H3o9RcHXugyr9rXE4YSxO3Pfu343mNreZmUmbHfrMi7RCk2CbnZuJynfBvpU23Rcz0xPWm2uxmcFnNjf4UxvsbbThoT7nr/Mr92Spy6C2fIxngr+mmXEbzjfY9uTf+jyQcJ4f/sTyfZ1OiJxlLh+CHbtnlZ5fi0vLtr27568l/n3cF9WSH0mm6xsfH3FCpt/m5hfcffc+cbssW9wPyofw/Ig/W6Kfeu7k3XPnkGc0AMATpCrEml5P8+6FrFr7q0HA++jl719+X/oXmba9r7m4xqYmRnyQtjTysQ/UFHz25tpsfWPdf5+0X1bs8Og4CrASvvO+cb/4wMBZaBWSzS0s2cTkpP9O28J15BeNv5lfWLxSBhVYhQDU/fM+vks51D7nbvvOjjY7m/+ra0ItCIWeXKfPM3+OhONUwnQ/zDsROTX44lqaN8a/74RNV3Rvhn1KWAa1zWM8E+Tfjc1N/wwovCbZ2tiPbGS4358ja88DPaP0rFLalSf9PU02Opx3z4Sz5HJTBflRaKfn5zY82Oevb2X0h76czQ5+6kW0nn9Zf0ZLcN2UF/rO54dzmFomQ0vkytq6b2FLmx8AAFA7ZF6s6QV25F7C6rt/dFHTKNOLzL+43Pd6eennQ9DuszOTvhWjMEBTEJ3vafVdfPRSzRpra6s+2M91tbifrdbb02H7+/uJL/XgK/lOtbjBn+q6tLvn9nHfZfASK4r84ctgb68dHkfd4KIyGAVVCrBCEHpXtN/xyZnPv8JyFzd1xVPglpVgTT7RJCtdna12Pv8XiWmeHHhuC4tL19Ks37X/fcugvnusZ4L2kcjcnfrfidck6+1utp3d/cugu9IozRvra06kNV4T/BvjP7SB/m5XTqNKnCT0uY6RxfyIo91Hhvq8YI5foyyq0Gi/rKzKErru+flZfw+rBVo/fctzwuQh3lfuPwlb+S50JQ35EZW7yKcAAPA0yL5Yc6a1gMYnJj8EAS6guAwCSvDS0jGO3Ysz11U88FQN7vBQPjrvxX6VRumYn5uy0f43V4I0BS79Pe+KjjsJfosHAzOz8zblp++WX7NyhdlA/tBkIqEMRt0erwai90WBl0Rfxy0ta7luJ8CPz10wnY0lF+ST9Y0tG+qrT0yzbG3sB+6eiVqhCtPs/ebsPmVQ3zzGM0G76RjtbcWfA7LR/GtbXFnzwua+5yolEs257uLlZ3bo5zYzM32juAx+y1J+xNEh9DxTF9uka5TNDv7MT8jjzxvtVnGUDrXEaixqPK2b4x9ZvrfNtwYmpVWfyW/KsyCgfX5Mz9yaHwAAUFtkWqxFL6svffePlbUNHySHbjX6rlTvK7341jY2bCRfd+WFGjcFQgqodX69QCv9qtT5t7eLBy8ns39jfT1tdnSs2tvrqQ3+05gWiYXN7X0/dbfv3uW+SNjlSSI/hDK4vHpRBp2pRU3fPcRP2leBl8rU+MS4C+iSx6xND35uIxNTtnN4flH+Kps5Or3uAc1WN9h7s1gbcmJNPku6Z4L/7lIGo3M/zjNB+0oMSxhLICddkyzf02SLa9v+vEGQVAqdWuul3SSa1UrY19d9q4/Cd1nJjzg6ztz8vM0M/DzxGmUSQJqMR+KmWHrLiU6/uDDn7uvr3YRlype8yxeX3MT3SfCfypgEdMiP6Pqi7wAAoPbJtlhzpheVun9s7uz7AdeXLRrRJg9GLzy9+FZdoHFT4Cnx09nZ5qdcjgKRyr4pdfrxsWE/biMpvbLx/pe2sLRS1F/6TNeul//B0al1dHaW3L/VjvygYCpeBi+DpWiTexMCMdWabx2cuXP0eGEWnw1Sf/f05Wxx+8S2D898/lQ6ENWple7d/WPrvqE1Wt0gx6cXfItgsXtGn8iXactgOHepnwlKmtIhkSLhPD/0SeI1KW9y3e22tnPshclDz/tQVBYW3T2uez0pvTKlWctBqJzdll59Jz9UOj/i+HO4/2bnF/39kHSNMvV+GBzM+zRUOl+i8uT80ttl+9P/KzG9sr5cs235iWCK+9d95fLjfSw/Lloto00AAKDGyXjLml5KZh0dnbZ3eOqDo1BjWyp0KL349t2LUOO9igWeaiXoH+y33aMoWC9lGu6KT7P7b6A/dzlbXZJpcpTxKS1Ke3PNuFqJFMhpLIV+ltrH1cxjlkEdQ/milgi1mi3vnNrg2KR1dkbrrHV3d9jA6KTNbBzbyu5pJsqe0Ol1z6jiYmBoyKaHvrhW9lQuNd390taR7bl0Ry2RyQnXx2nL4GPlh/Z3h/F5sXVwYr0uyC4cGyXR09vdZKNzazY+t2orGzveDw889b3ReZXmze09y7ugP57WuEnE9A/0xURztH8x9H2l8yOODqX0rG/tuutsSrxG2fTgpzY2OW17vruw0lDCRNwRnVll46buzbLhvre2uLJ+cX9E+xai60ibHwAAUHtkvhukXrp6QSkwvOx2dPF9KQgvVS1IOjm7YCN9r68JtmjMUKvNb+y7oPrMj8dQkF0p9PKWX0ZGhm5sWRvLv7Sp+aUba5rD9atrn/ysbRUIFBN3T43HLoMhL7UY7vr+mS1sHdv0+pFNrh3a1NqRzbjf1aq26b6LWnKiPKsU799rsd51GxwatreNzfbpywbrd7/3dr/zlQMy3UO5XKdNLu/aqhOZtwXP+jRtGXzM/IgL54XNQ+vr77NcV7MTCA3W113vztlszxs67e+fN9hnrxpsfmnVi6VSnPs+6Ly6dvlB3RyLVdz0OYEzvbQZPbsuKm5uIhy30vkR8GLFHVPlaGhk2BaGf3btGnXtEtiqHNg9OrsQM6VMxd0Ifunt6by1ZW1lc/eD3xKSrI/S5gcAANQemRVregnpZaTuHz4QcMGs7/7hPi/l+ym8CBUIK1gemZixnu7my8BzPP/MBZ7tNrG0ZSs72Wjd0LmVhqW1LRu4YcxaT67NljYPohp1pfli/zjh+hUs+EDA+UHHdh89+UCgHGVQxwn+VzC64crg0s6JF20LTqQtu9839k9t3507ypfyl73j42NbXFx0gqDP6uvr7c3bt/b6zVt7+abeWrr6vJjU/dE3MmW9w5M2MLnoBefCltIeRGZy+RNxH9xUBh87P4Jw1v0ys7xlb9r67OevW+yTV+/sZy+b7EdfNNqPv2iwT1422uev6v1C4EpjpdCp5Tf5YXnr0D2nOmxp5Me+ckkVThIwEmrDkzO+HOnZdSexVuH8COhYEifKl5XtY+sfHPDXFZ7Rg7kXvhV6eu3QVw5oO6W3UmIt8ou7b5zfNEFL0tIWMo1Z6+npiu4R57ti94g+S5MfAABQm2RcrMVqbd3LTC+rYi+0+6LzhBehxg0pUB5fdIGnCzo78yP2+Zt3lp9csXkXPK/vnbp0RLWala611bgQBV8Dw8M21Pv62myQ6q41Nr/ugpeTD92fLvaPo890/WotDIGAju0+Kqmfq5GylUFnOo/8rrzS2LRNVxZlag1Ri0WpxwGlYW9vzzo7O+2tE2fXrc4JtjqbXVz194UE2+zGse+yqZ/zm8c+cPYC4ZbAUh+nKYOPnR86ho6lIFt50NjR51vRfvzcibTnTfb3L5rsZy8avFB7XdfotlWaSnHm++HT6/5TtziVlfmNI8sPDnrh0tbWaj293TYyt2FzLi/WXB6pMuCm7naB4IdK50dAx9J5wnWqImNsYdNXDvQMTdhnb5qtpX/Kf66KDaW31Gm4C8Ev8oXKUXd3l032f3pFqGkyFPXWmFrZ8ffPTWnWZ2nyAwAAapPsijVnehnppRQFAlHQ9xgvYb1cFXDoHHrZL8UCz5+9arGOgSkvekLNdCUDAd8NbW3dBgbVDa3Ffv6y0QbGZ62jvc26O7XOmvvpgrWxhS0nME9s3V2PruvWQMBd16WfK3yNWUHX79xQnjLoTMdVOZT/FZjK9g6PL7o8RduUm0EX/CeJNbWuNb1r9sJGrX4KoiUIVnZObMXdKwpAdb8cpyhL4dpvK4P6XX54zPyQ+NLxlO6N3SN71dhmnziB9smLenev1dszJ9RevK6zto4u/9yQVQqldXNry7Z29rwQkziWSFarprrQ6qeeYxoLKdGQVsTo+6zkRyBqwYta11S2JMxm3bXqGf26rd9eNed8+VMXSKVB6apk3ii9Skd+eMIL/I6evPeRutXqZ09vziZX9nwlhyoJda8X85s+S5MfAABQm2RarJXrBaXjucP6oEO1w3p5KvBR16HGzrw1tvfajgsCLl+oZY4CinVDU9DY3JX34nJm48jGFndsYnnPB2qz7m+l/8M4leTgRR8RCCRTbt/omMoj5ZXOoTWY3tbV+SUaHuN8aVBZ7+7uThRsk1NTPp0KonVvSLRJNCiglq8uW1luuV/0bRo/p93uoQTBpmOvbmzbizcN9sWrOnvu7rdXb+p9i6Kmqr/lsh6Fw8NDW1hYsHw+bw0NDdbQ2Ggnp2fe13pGScjoeSAxs+hM4lnPMz3X0rSqibR+TrtdKfhwrqj1eXP/1D+jdX394/N+DOHG7qH3g9us5Oe/K6pUG3Jl5IUrL0NTCz4/JJ5HF7ZscvXQ/64WT12DJuDRPVQsbz5ce3meQwAAkC0QaxfomHrJqxVDNdAKCBR4jk7O2qu6Jjs+vWidKuPbsVg3tDdOqEmwvbrohhZaA9WSpgBAgYFmD/S16c5vUZCWnHB9SiCQTKV8o6zS8WXv3jXb2NiY//zs7Mw2NjZ8uXgMJAQODg4v/vrA1taWFwbxMljnRKQqEXw63X/yie4db6686W/3r2i5i6Mt0vg57XalQMdT64iOPTe/aK99t0/dd3X++ufm5qMNHxnl+erqqhOHI9bS0nIlD2RTTjAHcelbOd0za8cF/xJouv/V0iQhrTzR9aTxU1o/p92uVITzSdjouabns65va+/Ii6LZ+aXo3CnK3GOi8+f7+62+odHml1Z8GoOI1vNZrZ96RkuoqTJNrbgu2UV9Fq67XH4GAIBsgViLoePqPa8XZwg6t7Z3fZC2tb1TkSDg9m5oUSvG9mHUPUimmQMVsClICzW2xZKujwkEkqm0b/b3962np8cLpfb29su8393dvdiiNKgrXWNjoz179sybfpdA0zWenp56YdbV1eU/D2lQK28cbav7IyprkX+KlblCtFkaP6fdrlT4a9FPZ4NDQ/6eU0WJrn9nZ8dv8xicnZ1ftma+e/fOXrx4edmiHvwvU35IzAn5XH7Q/a7WJ7UwyfS398/FtaRB26Xxc9rtSomOG0S0rk3Paf3s7Or2AumxzpuW8/Nzy+Vy/p7d2t727xL5RMJSAlrd0jWhiLoN67PLbsI33Cz6ptx+BgCA7IBYS0DHjwLPyNTVaHp6JvqyzOj8N3VDc+7wwYoCM7UIqruTRFo0dkT7R1YMfUUgkEwlfKNWs97e3ivCKG7Nzc0XWz4clQt1r/3e975nv/RLv2S/8Au/4E2/67OFhUVf/o6PT/z26o4p4aZ0rK+v+89KQVo/VyI/AurW1tHRcZkPCsofg6PjYycI39hv/MZv2C//8i/bP/gH/8B+7dd+zf7u7/7Oi7Zwfpla1eLIB8rTIGbcv+j+v/g8Ldo0y/nx4ZrcefS7+296ZsYJ2gafT5Xi5OTEV2pIYKuiRSht8odEpZ7L0TP6Q0Wa95Uu4gb0bSX8DAAA2QCxlgKND1EALR67K9ru7p4tLS/71o6T01P/mVo3FADEA7WkbmjB3D8fsIVg5ib0dVb8nDUq4RvlmVrT4nkdt+Hh4YstH87Jyam9evXKfvEXf/FSqAXTZy9fvnLi4fRKGVp2ZVOC8bYA8y6k9XPa7R6Lo6MjL6J17sdAPm1qeme/+qu/ei0/JNp++MMfufu+3pWDuiutaoUoa4Ldh7R+TrtdOTg4OPD3h57Nj4nE4Pb2jn9Gb+/sONEeiUM9i9va2rwpLXHkC+WF/BK3UndLBQCA2gSxdguqIR0YGPDiKN4VrdTdoM7Oz911ttnHH39sf/iHf2jf/e53fSCtlo/ZuTl/zvi4oWvd0JxT5JdLS+kkbUYgkMxDfHN0dOy7s90H1dAXivNgpWrRkjBYXFqyP/iDP7gmDIL98Z/8iS0srUTXGytQGttWStL6+SH5USokBlR5U2qU/o3NLfvOd76bmBeyr371q/b8xUvfLXtycjLa8RGopvyIozRobN9jceDKvZ7BH330kX9G66e6p66vb1iTu1/1ftC9W4zCZ3RatG2W/AwAAOUFsZaAxgTd1BVNn5eyZeH8/Xvfhecf/+N/fCU4U+vGn//5n9ur129sdnbOtrZK3w2NQKA49/HNysqyXz4h16VlFFqtt6fDl6e7+nJzc/Myr4MpMLxLNy+dN2l8m4quuwQbm5i0r3/961fKXNx++7d/28anZh59KnQdNo2f02732KgVpdTIt3PzC/bNb34zMS9k//Af/kN79eq1va2PZoAkP64yPj5e0m7CcSTCVHlW2OqpPPnxj39sHZ1dRVs6H0rW/AwAAOUFsZaAhFh8fEqh9ff3X2z5cHQtI6Oj9q/+1b+6EgQEU/eneHe0UndDq6Sfs85dfKPsmJ+bstH89QXK+3uavNAulmfFutRqTFK83BW2pt7G2tqa30/lRd0nJfAl9sJ1La6s2be//e3Ecif7H//zf9rs0podnqRbn+u+hPTc5ue02wV0rVqTcG5uzndbC92Ks4a/Lvff4vKq/b835IfGrj17/tKGxqaiGV6j3UtOWj+n3a5caFIclfekCoqHoPtW1yf/J+XLr/zKr/gKPH/dJXoux8manwEAoLzUrFjb3z/wYwru2xVNAXRhy0YwrXNUCvRe17iFxqYm/8JPCgRk3/6v/9WWXGAdrr2U3dAe6udaJq1vlI8qb/097+x8/i8uhVqwk9m/sZ7utovWkOtelQgbGhq69p3+jo9fU5fYu6AWoHi5lal1rtedb25h0TZ2DvxU9GodKCxz+uzN23pb3Tn208FXmzjYPziwfG+nF89zgz+1qcEX1ptrc+Jt9dGu474oPfLvzsGJn0QkaQyh7P/5D//Bnr9ptK39aKH0hKJUEtL6Oe12xdD4XD2jS3Udul+a3LO0cOKVhxCuURUeqjhLyheZZgk9ODxJfe134aF+BgCA6qbmxNquZtPr6bB8T7MN9jb6rmgz0xN+9ra7BgWFLRvBNNFAKQjXqNkmNfNbUhAg+9a3/m+bnlv01y9xV0ru6+enQFrfKEicnp62+aG/vybUgo3k62xlbT3qTnixX0ABpsqVhFnhLIPx8Wv36X4Xjh03TQGvdcO00HN9S5cfB6XxUBJoqjTQTITqejuxtGVre6dVJ9bkMwkztWrG80AtnnomrG9s+jwTqpQpFMnlRmeX+JKfx6YX7Ht/+9E1wfYv/sVvWX1Ti00v79juLYsoPxQdtpT5UYgEs7oKq8VZ+dHe1mpLi/M37pMWLXWiXhGlQmXj6OTMt5zF86PQfvazT2xta/dRRPR9/QwAALVBzYg1vSA16YcCgMIgbX74Exsa7PVC5y4vN72oC7tDKi13QV1y1B0tqTVMaT49f2+tbe32la98JTEIkP3tRx/Z/Mqmn+7ZXX5JX9A6FoFAMml8ozzU3yPDA7Y29oMr5S5uM4M/t6mZObe/8vBLP8OnKGz9SpqkQOPXOju7fCCqoFFp0U+18BbLIx1flQpJM0t6sfbmrV9IeHhq0WbX9q2ptcPq6hvtTV2DNbfnbHJl3xa2TvyC6/fpBrmyuuq7H8o0MYP8VAx9dZufRZrtdM+OjhTPC7VydnW2Rfu4bTU2VT66aWKIu3DT/V6McF1adkPrJI7Nrbq8qPeiTfb8xQtr7uix6bVDW9098etzRWIt7p3SkcbPIu12ASV3aWHeRvvfXOkqrNboiYHXNj837bd5yGWtrKz4Ml6KcYVKh+5VLYuiCrX48hZxU4ubekdsHZz4bf31P+AaCtGh7uJnAACoLWpGrGkK5Z5cux3NfOdKcBZscuCF70bmdk/cv1gNe2F3yLvONqb9w76aSUzr8IyOjtr8/LxfNPXw5MyW17ft+z/4YWI3m3/0j/6R1TU0+RaOAxeklfoFrWMRCCSTxjfRNmbTs/NekCWVPdlgb73NLq17wX10cmpvXZnSMTX+MZSPYPF1mkQ0AU29feMb37hsgVUr2J/92Z95cadiG88rjdUqPGbc1GWrvqHRVtY3fSvN6u6pzW0e2/T6kT1rzNng7Ib/W5/r+7tMMKJ1wvr7um2i/6Xvfijr6W72rdu6v5KOoY/SlMHbtgvfq9UmLgYKLZ9rtq3dfX9NCsLlE/lcoviuqPurZv4M13XT/a7KpKT12bSv0q1AX4vbL++c2pQTZsOzazY0s2pjizs+bxa3T/xiyipDhb4pJcGPD82POLrGg4NDy/e0JHYVlg30NtrmdtQtMqmcpEH+1b1Siq7qIV/k7/GpWftTd78VPp9lv/u7v2cduf7LvHG7lDRvdKy0fgYAgNqjJsSa/lbXpqG++sQgQLY79b+tr7cr6s7ldigMBm6qYY93h1St+V1R+sP+cVMLx8vXdVb3rt1eNbTY333/B34Qu2pwNevYN77xO/bq9VubXT/0Ne6qeS/1C1rHIhBIJo1vJEDUyqFxRL09bb7lJqns5XKdV/JQ6+hp0g8FlkllQ4G+xIPOMzA46IVaUqD4p3/6ZzY7t+BbAOL5pXKsljVVUBQeW8JEokLpUHC5c3jmKwNmVvfspy8a7WVTl2/B0eeXwqDwhklAolLjxHS9hT6YHHhu83Ozifee/rzNz+K27XRc5UV7e2tRQSDr7Wqw/NCob+nUmmXBL6qU0b2e5lq1IL3GMX3yySf28uVL39KpCS60Z7H7PZi+1/T/8dafkHaVDwX9yzsnXjDPOtPPJSfUVH5Cq5rP79uTeYnGh01NjtngQI+NjQ768ldsf31civyII58uLC7ZzNCzxDyRLQ7/xC9JED2jiyQuBXqOyx7Ke3cdW048TkzPWktX3j5/8cb+vz//774CTc9o/fxP7v6rb2r1rdCb+xf3i0v6/VN/nbv4GQAAao+qF2t6pytwWVha9q1nSUGATC1u3V3tH4LPi/0DCrYUSCXVsCtwiLpD1tnY+PiVrmiaLlrHuim2UABSGLBFVmev39TZF6/rbWBiwSYWN/24FLV6qDtaa3feJtcOXSBwfO8addVmaz0tdUdLCtD0Zxo/P0XS+EZlQ8GzgujphRXrzbXYxvj3fXnbn/5ftjTyY8t1t9n06m6i4NbkIsllQ1bnAtxFXyaLTToRzUTX5NOQVAZv6map7dUqqBadfZeu0akF+/xVvT171WCDY1MXXbpuLtsBbbKoYHwwORiXeOrqbLXjhCnn9WeaMnjTdu6fN3Uz7e3p9L5PSoesvb3F3jS124vXuv+iSpO4j27qFqk09PXl7Y/+6I+utIQreP/e975nCwuLNjExceV4hSZRuOTuyTg6ru8e6xyuMrLthPK6C/7Vujm/vmdb7v7XmDa1chb65TaWFuZ89/ClkY9te/JvfRfR4XyDTY4P+/L7GPlxZTv3hz4bHx/1aUjKE9nm+Ecu77psZ+8wOkb8ICnRhFItLS3ex0qTxmyqwiLNodQiLcEtwa7KO1WY+LJR3+Sfxd1DU9Y16PJW3YXdvfmmrtF6R2ZsZuPIi2nlma7fJf1OaVfrbOgyrIlx7psfAABQm1S/WHOmz9Y3dyyfa0wMAmQKBFpam6yptdNGxyZsY2PTv5yFupwVBlOFNeyatUw16P/23/7by65o+qm/3zU3+26Y8XTp2Nvb2zYzM2O5XO7K8YMpEJAwW1rd8C/6UJsugfZpXaeNL+/5GtswyUOxgDwJbTc7M+HFgwJodUdTgDbQn/MBTTiMfhIIJJPGN9E2ThS7AHvDBdfTKzvWl++zzs526851Wn5w0CZXo/Ffl4Lb7RT2T5oAJG5t7Z2+UiCIgkKTiNOCvIc3CPliE5iojKiMKz1qzejq6bOXb+q8aSbI7Z1d//1tZU7fS2iMDPd7oZp0/8nUFXR1fTNKZ+yg+u02P4ubtnP//E/5d2Fl03epS0rDzOCnNjQ65oVzT/9QoliTJVfaROMHv/Od7yTmhcTb8+cvbH1jwx0jeSbZ0GKahK5PftQkFRLKuj7NEKmWm73DE/95oU9uQumV+NB9n+SL6aEvEls79WsxP8fPfdftZueXbHKweIWaJuipa3hnz1/XW2PTO3cf5f3EPfJXmjXMtDTDmzdv/AQ5YXyZKjP+23/7b/5YhdepY6qnhMS1uquG7u7K+4GBAd91VWMQdW/o2jb3T70om1o7sI+/aLT81KrNbhz77qm697XNXZ7RaokeHxvyk2GFLsP6XZ/F3yfBf7f5GQAAapOaEGvRy/S99fXlfM1xUiDQ39Ng+ZFp684PW1NzWySUNI15b2/iuCFZqGHXOQaHhuz3fu/3rgVoMn2ed8dYWV3zLW968YfubQqU1eUpKSiPuqPt+xe8rk+CTTXpQ9MrvjtaS8+wr13XuKHjgiD/JrTN7MykzQxdD4wkWgf6u+30QrDJCASSSeMbBWb6W/mjboMraglxgnt6/dgFdUc244I5/a18VetbmGBEFLZ6yVRu1Nqm1oDDoyN/viYXuN7UstbQ2HQh5l2Al5BpxZYGCOhTBYea1MK3GPi01Fl7R0fRfeL4/Z0Phm+ZZGWgp9EW1zYvxsB9OG7Y/7YyeNN27p//KZGjVqhRF4D35Zp8evRMULkf6Xtt+YG8zw9NnNLU0h673uum+zg+86uS3NPTa1/72tcS80L2rW99y5pb2xNFoO73+FjEJHQOma5FNj4x5Y81ManKo8gHadH2amUsnHApWLHWTv1azM/x86fezh1czzgJT7UyJ3UV1hjDHlUsrWzZ3PK6jU9O+3IrnwX/tbW1+Ul21AIlERUq24TO1+LSUGwttL/8q7+y6dlZv97e8PDIlYmjdFx1SVZrZ+FMv/JL1OIZzdapcqN7/KfP3ftkfMFXsKkSJrq3L1rVLva9CW0zNjpgi8PXZ5DVZ6r4CMeSpfEzAADUJjUl1hY39v0kI+p6FiYYUHeogd56GxgZ8bWiCqh1HM1Qp0HoEmqhRjXJFCirpvymdXb0uYKKVy6oanUv/qGh6MV/cHAQJdJR2BUydEdT+kMwoFaBPSfMWrr6Lrqj1fvpoBXg++uOR1RF0CZ+jakbBvLPDv3cpmem/DEV7qTx81NE15/GN8oXlUHlXxDcSy6IU427gjm14uwcnXkh4Xa93LfYotVC+ajzaJ+e/EDRMWv/6U//1IYmZl25doI+JgTjaHzabejcSosmH4mXU7Uw30a4/pn5xaItJ7ofJQzW9068n+J+0M9UfnZ203a6dt0rqtxQQD2+uGm9+bz19HY7y9ng1JIXz3781+7RRQuis4trjgvlwtkEw7nfvWv2Y5WS8kL267/+69bU3GrdvXkv1sKx1TWvWNfKJJSNp2dnfgIUHUc/07QuBZReVchospWk/Aim3gjr7hkT93W41ofmRyCINYmdmeUNJ6KbfQtseD757o/dTTYyveTy7STWiyA6ivJC94q6nKsCTa2T8qme252dnTYyOuqeZ7P2+eefJ+aJTGOA1eqpJSva2ztsbGzMHzNNnoTrVJrUgq3y9aqh1d13TjS636PrLt6yXYi2Uc+Okfzba/kRTEt9rK1v+vuEZzQAwNOmZrpBanpx1XrObxxZ/+CQdbS3+f3UFU0tVequoiBagUDhWjgSTnr5F7P2jk4XCDxLDAKCaXrtjR1N2hAFJ4XEZ4m71h1N5v7TdewdHDnRF3VFk3X39F675pvQuZeWV2y8/2ViECBTS0N/PueDj3O3vQJtAoHr6Prlh1vLoPtDpnLlBbcrYxJtMlUOqMxd7qcNL1DrgCwJbabtdbzN/RN7W9/gJ5yJzwbpJzd41+pFoc4VWu1ip0iNxGK8zAdTQKyyK5OIUYCr7r1qgYgLS5UlBa49PZ3XukIqKFer1vDUvBeuheP29DOVn53dtJ18q/tPAbVaOySYdd+rhXNqPWrlDF3W5pfX/H0m8VUolJPQsZW/ff0DXpAV3v/B/t23vmVDY5O2trl7pXVNAuO2VrVC4hMbydII54DyRC1m7e45GM+LQuvLvbO1rb3LsuP3dVaK/AhE25mfzVb5P7W87bsKt7W1+v0kpMcWtnwX8A/lI9qvGPKlKsQ002aHez6rO/l//i//JTFPZKpQU6XI/tHplYqCtGh7+UfpUll/19JuIy6f5Tc9P/19F216K3Lz1NSkn1AlKU9k+k7dM6Njp/MzAADUJjUywYj5rlVqvfAD8n03tCObLAjS1D1KwW/8GKqtjgdEslDDrskCDo+O/fT6ajlLCgKC6futg2OfxhD0FKLrUJfIJDEn9Onk5FRU2x/rnrVRZIxLITqsrm3OpXvmhlnX1NqooFoCVwGojEDgOrr+NGVQyPehLEb+fO9bulQuvSjWPkXyPYnoWFHLmlrNlraOra0774LSBp8WrYkWTW5w7FuRJJR0nnAKlRt1F4sjMVKslU2BbPweiJu6jGndtjAJT9wkQpqbW6yzO2cdPf3W2jvsg291QdRSBhJpua4WP2FJ1P3w7Nq6bfqZxs+3bRd8Fk3Sce7vdz0PdO+rNU1+Cl3WNrZ2ozF5/si3o2PruMvrW/b9H/wgsZVd46Q++/yZffaqwd61dTmxdrWLpZ4RaVvX9Fwq9Lf+TtO6FvlBYk2TrXQlzs4pU2tnZ0errwyIPxdlpciPQNhOZVmVCis7p05Eu2ezez77Z7QzCTW1Qu+4cqztCo9RjHDs9a0dPzNnYZ4EU3fht2/r3b106gVQuE/ugvbRPayf3bkeGx4ZvfJZGrSZS66Njg3byugPE/NFpolYRkZHfL7wjAYAeNpUvVgTelnqc73Y9LLXhBwK0OZdgKuZFBUcqNVNNbZ66UUv2GjfDT8ZQJGuaM7ce90f911Lm/0fRcaq/JN/8k/s02fPfdcYrcfjx4MVJtKhFgmdp+gEA24nfa+uU/HuaAqW44G+Am6lMyysHPDpdde35idbaUoMAmQKBIZGRnyXy1O3PS1ryQR/3sU3+lxZJdHgNvM/fTAXfX0ntJ8EmMqtxi6qLEeVEIfReLiw9pYEkA+2o/MLCTWVnSDYNNGExuaosqAQte6FshZMLWpqcdaYTt0XaskobOkJJkEiYaKJIfJjM16Ujc5tWH502gYmF/06YRKVCsYVrEtEyDfyk9CPNH5Os51+6ti6z3Xfxls5JWjlp7t0WQsorRJrOkZX74D9zXe+61s3wzNA3ew++fmnNja/ZuPOXtU1+S53cbEmk0+T1lorpJivU3VLdabr0/WvbO75SYYKx4mptXOor87GZ5f8s/HQ+VJ+075h/1LkR0D+U57I/16w7Z74SXfCM1qiWp+HCqT48+4mQhr2js58BVc8T+L2zW/+rn36xSt7Vd9sI+OTfj3Ah9DfP2CDg0MXf6VH16Xrm72hy7BMS11MzCz4e98/o52l8TMAANQeNSHWhA8GXGDrAzQXUKlWXUGIZvBSVzTtr8DX7X5lfwmfol3RnGl7BTKr24f28tXrawPY9feLl69tcmnLugfG7HV9k++So3WYCmvRw5pXxWrYw7ihJItP9R0EpkziTgG4Zk1bc/sfHkdjPgYG8rY+fn2abE0pn+tutYWN/ctabMRaMrr+u5TBOCqPKePNooTzK498a5ATZerap+B2wYk0iR+VcU27H5VtBbnRviIINo3riZeXQrRYs8qXKhE0zjKUr8Iyenh4eDleKG6+csEFypPTs17MqLJEgk0CTdOa+3XCXFp1L36oMPmQ0HCdt/n5LtvJF/pcfpH/JND0uwSt91O0aWpCkK17S9c3OrtqdfVRK6dM07mrK5+ue251x168qU+cZESmbtA3iRG1njVo+Y43b+zFixfeXr9+7RdS1+e3ta7p0C6p/rr1HJxa3PD3/PTFrLBq8VRr5/DErBdMhcuCyNL6Oc12IkpTlB86l8qJzuuf0e6n/tbn+l7b3uCeK0Rp0Gys5za/umU/+fufXhNs/+yf/XM//f7c+oH1j05bfWOzzztNNBIfV3wXVIGhWX7vii9H7hp3j0795C9JrZ76rKenw5a3j6Mu1G77M3eRafwMAAC1R02JNZm+DwFBMC9I3Od3DdLC8XQMBT3zGwf+Rf/i5Uv73t9+5MepaV20ieU9381K2+wfndjU9IyfmETdKTWmQkGuiI+NSwrY1PVSLRrq7qQATT/9DH0u6JPACy1+SV03ZaGF421jizV15i3X0+VraDWGSOPUNDV2T67NJpywVGujAqQoEEjv56eErv8uZfAx0Hnc6dx53/vATa0PCm5lvhJCwZz7LilNEmBJ4qqwRTaJQqGmsld4nLjNzs5e3isqVxp7pNYSdT2UuNG9If/p3iwUlfo1jZ/Tbid0fH2mnzpfOKfuOf28K9rFJd1fn/JA97sWrA5d+dTiKaG24kSpZpwtnLyk0DQ7ZzE0o+zz58/tt37rt/xkJjKNk9NnvhtsW5uvnElqXQ/oGuVrVVxpgfPp1X3rH5u1vpEpy4/O+NZOjedT/qj7eHyGTn+tJc4Poc90irBPeD7LLsuw+z5p32JoW+0XjVl2wtQ92yTE1B1Vz2g9QxtbOlw+HVx2szxy6ZxfWLh8HquySy3PadHaldpHYloVIpqsKi1qVV1ZXbfegRF7Xt9q7W3vvIjW81mm33O5Dptc3vX3j59l0uUNYg0A4OlSM2ItoO9CQOD++QBLP+8dpLl9fNDjXpoKehSQjbtAZ2hm1caXdi7HWygg1TZRq0EU3KolTWmXAOvu7r4WsMW7NGnGMwViCsh++7d/27761a/6nz/4wQ98bbqCu/h4o6RJUSKx9tYFivU2Mr3oW2AGJ+asN9/nZ8TrG56wcRcEhPQq+I+6QRIIJKHrv08ZLDUhHSqHOn8IcD9UQkTbBNRaUGxtP5mC/PsgAacyWDiWKnS11D2mdCpd6u6m+0FiQa1pSq8qBQrTKsL13ebntNslcZ97v5DwLND1SCwr+Nc9pq586o6q58PazqG9etvg78O4jySaNSOk8kUz0I6MJLfq6Dnw7IsvfLfKeOuQTJPLfP7smReB8WOH1vX4DJbBV/L79uG5T6vue7V0htZOfSYRrZ4Dap0KlUdh38fID51C55Ew1Hbu38XPaJ+LJKRG2+sYEnuqvNA1SYSOLmz6Z/TEyr4ft6wWRHUlVhrjLbu6F1RxJj+qu/nKysrld0nomf7ZZ5/5Z/NXvvIV/1N/6/Nie2kyHs08rC7FqnxThVr9uzbrHhj3aRwYn3Np6PbPaAnqydVD/57x4zt137j0yu7iZwAAqB1qTqwF9L7Vdt7S7FAE7apzKuhRraxqO/XiV0Agi8ZbREsCKEiVOCw8nWbQKwxwZRJxYfyaup6pNS0s5hq3P/mTP7GZ2Wjx2uNjd273e9LxZBJ8K2sbF+LyQ3c01fyH2n8FNGodOHb+JBAoTsj7LPhG51P+u1P788ui1qKraVErrlphk8pGMLXKBHZ393wrg7rQph3HEx9PFYRaIArEozRK2EigqXz5+0J2sV0cfZbGz2m3eyx0Dncqfz0KouNd+SR6dM9pGnxN8LO6umZbW1dnzbwNHX/W+fOP/uiPrj0DgmkJh2jyoavj4QrzQcjfPq3OT3p2qbVTLWm6/+OtncojnzdKgPZzVo780DbBHoLKnK5B16lr0vVJQKvlUxOZ6Bmt61V++Wd0QvpUCaE13PRMlviVP+PdTeUbdRf+6KOPrk0uo78/+ujvbNPlt78fnWl8smZzDJVq6mUhUTg7O2f7B4feT3pnqCVWwjk8n/0z+uKdcpled256PwAAPF1qVqyVEr2o9bKMBFsUnEkIyeLjLXzatHEBmpwhBFWFpsBaNeJagFetafEgIB4MaNtcb5/7Wedf/PFxSPFj7blzuWT4l7zSpdpZBS/qtiVTmlXTrsBGgZy2zYqfs4auP2u+UfHSub0VSYSCTAmqYoJerTAnp6fumtrs448/tt/93d+1b3/7275VV+sB3nZtOr6OnSQQxGUa3S/e9Lv/Jhl9l8bPabd7THQeiWQfPEsguPte975M4tSnxW0kuys67tDwiP3mb/5m4nNAptac5y9eXulmeWM+ONN9rueB/KWWTonK0NqpNIdWrYB+r5b8EOE6dS3qDikRFLrhSqTpGa3rvhRq2rgIaj3Wem4q3zKtx6bns3bR38UmMNHnajXrHxi87Hqs57HGtq2url5dqsUdTC2ZKjtKq9IYns96Vivt8XeKpH4W/AwAAJUBsZaCEAz49PiAIAp2QsBzma4iQYBe2IUBczDVjmsaaAUCSa1qwf7yL//SWto6bG5+wS+WWygAVYMbxhlFwYB8FwVoevFLoGkKeAVqSrMCOCXX/ciMn7OGrv++vtnfP7CjoyjIqxTFRNu75mYfUCrwj5cxVQpItM3Nz/t035T2+07MkERaP6fd7rGJfBOJHJ3b/YvSoM8vtrkr2k/HGB2fsN/5nd+5ki9x+9rXvmZfvHx9OYHJ+MREdIAihLTq2BKYl+b+LpbmkJZqyQ+h8+lavIh2zz0JoegZ/WHiEvfP+yINElcSweq6qold+vL9/j5KypNgdXX11tbZZROTU7ZTZNKqQEirBKS6o0u0Rc/oaF1GzZgaz5+s+BkAAMoPYu0OxAO0EPS4X/1nxdIkAaWWsHiwLFNXG7WOaRxD/+Cwn5DkF3/xFxODANl//+//wxaW13wgovOJEIQXLrItLgM078NIUCowCGnWIby5bbPm56xwH9+srCxbZ0eb5Xua/Yx7XZ1tfvKCSvoyLtqirnN19vu///uJ5UxlUK01J6fJy088Bmn9nHa7chHuH28PTIDuV92ra1u79qMffZyYN7I/+7P/bC/eNvllEvr6B/2zpXAymCQ+pNP5Kpj/5jr6vGrzw/3nTu/ToGedWrDcjxuf0Teh462srFpbR6e9evU6MU+C6d7aPjjx51VabiKkVemUkFQloHynnx9aaKPj6FBZ8jMAAJQXxNodCS/PK6b/iqCxEBp8roHsWiIgPgmAUBChF3RLa/u1lo5gavFQoKDlA0LXGJ1SQk8Tj+ilnkSUtkhgul2igMX9jG+t3wkEkrmLb/T37PSkjeZf+8WGwzTcWt9qsLfR5f9a0XwqFxJtWnT95ctXRcuaTONy1ja2UpeBMNvpfUnr57TbVSMqGwrS1arS3t1r/+e//tfX8uWf/tN/ap8+e2GfvGiw3sFRe1MXVQKp5b6UVHt+hGdc3O6LjqXr0XNXEz1pkpfCfJHpcy3ZorHA8oHbxe97Gz597r+rz+inU+4BAOB2EGsVJHpJR+PLVrf27OeffprYuvZv/s3/ZS/rmmx159h37wk+iM8OeRs6VxL6mEAgmbS+kW/3Dw58a1p8vaS4YOvrabOj4xMfiFWKcD3vmluurRcYt+9857u2uLruxYOCxziFk2UsLy/7VuKHXFdI161+dpZmu8Da2qoNDvT4bfN9XTY7M5G4XRZQutSyJrGmMUzt3Xn77PPP7Q/+4A/t333rW/bTn33iZxD8yYsm+/RVk71422ivtEyHE2uaFEPdoktFWj+n3a6a0XW4y/FiTYtU/8Vf/lXiBCN/9dd/Y6Mzy36Ck8sKtTs6odj2+rjW/QwAAMWpSbGmme2mJsdseLAvmtXrvHxduu7C2dm5HRwe2er6pk3MLVtbz6B98fyFnw46rK3013/zHXvb1GKfvGq2hrac7R+d+uChVJfzED/XOml9I6GiGRa1jl2SWJON5Ov8LJ03+bWU48CSCK03o+OTRcdFKfDU2JuNvZMrrbhCXW3D2oH6XTPeSShIMNx3OQCR2s/OUm3n/pieGrPR/Bu/dpX8vz/9v2x26DMbGux1aX9/ZfssoPS4y/A+14QYmsFQS4T0j8/56dxHF7b8MiEjcxv2xZt39uL11UW31cpeKpSWUuZHEktO5I+NDtroSL8tLi25fdLNmFlu/DW6/7b3Dq2lu98+e/HWvv/9H9jXv/51/4zWz48//ol98sVb+6Khw1a29mMTmUTHeCgP8TMAAFQ/NSXW9MIfHxvyXdGWRj62zfGPbG7wp9aba/ctH5V6sanWW12VNAuf1lvToPUP49jq7JULujQG5fW7Tpta2bP8yJTVNbyz1q4+G5pe8UsETC1v26uGFnvX0n7RQnNx8AdyHz8/FdL4JmwzOjpkK6M/vCbSgmmx2+m5Bbf/hzGHcdRipdnjtJD1QwjdbrVchMRUfOp4nVZibefw1M8kmDSznVpyuvtH/Ix08VbcgESZWtJk8YlLtKD7fQk+vK0MptlOP1dWlmxi4HViPiyP/MQmJ0a9MLrLYsblQOVC+eOXAHD+l2DT9PNaekM/5zePrL41558VL19HQi2+6HZYBuShpPGzSLtdHFWc9fd129TgC1sb+4FfsH/G3Rv5vs5oQp6L7bLCe3ctU9Mz9rquwV675+/Q1JKNLWxYbmDMP6O73c8xJ6Qlpr+oa3XbNNvm9m7Jns/iPn4GAIDaoWbEmj6bnh63+eFPrgVo6obW091qxyen7iVa/tebguW2trbLoCpuCrhUQ67Z3RbWtm1l5/Ri8dpo7R0JNS24u6m1nPaOrLm1zQf1Sa0w9xk7dFc/PyXS+Cbaxmx2ftELssKyF2ygt9HmVzZ8y4nb/ZpvJbBUHuJr792HYhPaaPbH5uYW6+zOWUdPv7XmBu2VC/j/6I//2Lfk+sV9P39mbd15vxafWneKpVXlrHCGSaW7cDxmWiIf3l4G02yn27uvt8u3pCXlg0wTwByfnluLO4bWvcoK4frCDIHREiEnfm00/WzLDXihpu6PrzVtf8z/Mi3qXIrnWxo/i7TbBfTZQH/OV6IV5onyq6+3w07PzhP3rQS6D8NzW7N07h1FywAsxdZG03M6LDCuBdGb2zqtrr7B1jc2Lo7ycO7qZwAAqC1qQqzp78OjYz/7XmEQEEytHmr9qNQLTjMCxgOrq1ZnYxNTviVD0zdrzIpE29XFa6Ppp7U+Vld3tzU1NfmWk8B9xw7dxc9PjTS+CV0Ldw5OLNfd5isGCsueuuL19uZ8Xh64IDy+vyb9EGHxXJmE1UPGIBVbKiKqGKiz56/qrK1nyOY2Dm1wcsH6Rqasd3jSRuc3bcYFoMuu7BWbKEHXq9bhpONrxsn7kMbP4rbtwvf6rjAP4tbf02CzC0te8CjdxdYpKyXqNqpWTj0HtO7WwsJCYh6Ha1CZkljed/e91gjTmNaunry9a2m7THeSPbRlVtzm50Da7YT+Xl/f8N2Bk/JENjP0zOYXFhP3LyeqdBgYGPD+1Ey7WoYjavWMlgLQ81hruOn5rOd0eEbr+X18cma5XI/bt64keSHu4mcAAKg9akOsuQ+WV9d898ekIEB2MP1d9xLt8LXW7hBFX3KPOW6ov7//SmAVrL29w11XtPaZD9BcQK+10WTxddFCuhX46VgK6kN3t/uOHfLHcwcmELhOGt8EsaZ8mlnasO6uVt8FVwJNNj34mS9306u7vmubRHfY/9QJb+WbFkQvLBNqPS2ckn13b88LcqVF33d1dftt4mJKFK7BF0xd5tSK29nd69dzUsA5v3XsBVpoxdXCvGo9kKjUdRUee3BwMPHYsvtONKI90pTB27bTqZXmjo62KzNyFlpf7p2fTVEtVLctLH1Xbu7y/MFuagXTpxIHui7d97om/dTf+lxdCXd2dmx+ft6PH1T5iS/EXDgJzF25zc+BtNsJXerU1KQtDv8kMU9k6hI5PNSfWO7KgfJjZmbmohW62VZWVi6+CXmibpzRQui638MzWs9rPaOVbuWPTLP0Kj/uW4ERR+dO62cAAKg9ql6s6aWuz1bW1m+stVU3m56eTh+EKvBJCpRKNW6oELWeTExM+KAtiKpg+lvjjJQcfy3OQoAWzF+zvr84nlD6R0ZG/P4hUJPddeyQjpnGz0+RNL4J20iEre+f2ez6vuWHhl1Z67ae3m7rH52yybVDP/5IIsiPA3M7hf3V0lLYpTCYWtskzJX36ib58ccf+0kNNLZMs4Z+9atftVevXtn+weGVvFI5TjqeTN26Tk6jLo4KNDdcmtXNTi0E6mqnNCr4jMbWfUinUDnV2oBJxw12n4lGdI40ZfCm7ZRWmSpjhocHbHn048TnwNHMd5wPmu2Lt5qk40KsXaS9FILtpi7PwcI9fxu6Xt3nlxZ9XBR1T1XlzUNaZcVNfo6n4S7bKW8mp26ehEdj2IaGBnzZ1PbxYzw2ocuj8kbPat13hSg9uhd1ffHns39GK70FaZ6cnPT5LfGe9L5Ji/ZM42cAAKhNql+sOdNnW3uHvhvk+fxfJAYCi8Mf27uWZusfmSw6ALxU44YCekHrmBKAElSaMTCcI1hhzauSFQVn+nnxe/TVNdQyo+6Q8eMp7XcZO6RjEwgkk8Y3yiP3p/v8vW+tWnGCJ4xnmfJjWo68UFNXKYkgBXbaJ1CsFSyYumEdHh7Z8+fPr00ZLvuVX/kVe+vy/EwzHMYOrFaBwmOF1jptFq5LlRehlSC04qq71035r/KlcqyKgcJWI312cnJqs7Mzftp8zfan2Vnj11yIvrrNz+Km7dw//1Pp10yWPbl2253631eeAeqi2tvdZK09w/bzF/V+nGh8RkXZXQSbrlOzGmofXWOY0fDmLs+laW15TEqRH4XbqQJqaXXDBvsaruRJ3Mbzz6yptcsmZxft+PTsyjEei8Iuj2l6VihdaZ/Ruk/0TNZsnUkCMA06dho/AwBAbVITYk2BgALhsclpmxx4fi0I8F0gu9usuWfIXta9s5dv6vzkAqr5jNdw32Xc0Pb2jm3v7BQNQhWwqauTjqUuMfEubblczn/+kAkBtF8pxg6l9fNTJK1vlBeaZERCYedizKG6E8o0rmV9/9SLoWP3va+Bv9hPFBtfFreOjk77l//yX14TasF+9PHHvgKiMF3FyrOKXJRmdan70NXOtxDoGAVpvAm1JKk1TdcRzRBZ7yfzUQuKuoGqa5u6J48M9blgNXnKfH2Wys/Oim3n/l2I5i/9eLv5jQPL9XRZf0+jn/hFP7u72mx0bsPa8hP22asGe/46eaKO2wSb/KMgXK2af/iHf+gnZ/n2t7/thavGN+05P8d9H7dSTQLymNzk53jKU2/nrldlS8/owaEBWxr56bVntMpJZ1e71bX1+klU3tY3ehF130ozCSM9n/0swAnuVpqKdXksNbo/dB61Shd2bU5DWj8DAEBtUiMta+ZbCBQkD46MWa6r2U/ZLxvLv/RjhiaXd33gvH146te7GhoavmyV0vFD7WrcQktEQC/9CSfw9HL/6KOPvGkbTRYQ0qSuSGFsmsTU7u7uxTcfUO2tXt5pukIVo1RjhyL/EQgkkdY3crVMwsfP5HcStbJJNOw4kab99LnfL5YvKlvFZm7UWKfu7pzl+wessemdfe1rX0sUarI//pM/sbnF5SutdipjoRW3WEuxNvXm/ovsYXmu69Hi30mTrCwO//3FlPnXz6G/U/nZ2U3b6RokPNVCqGeBWjhHZtf8OmVDM6s2sbLnP3te32bPXmn6++tCLVgxwaZzqCLme9/73rUF7LUUwosXL3zXSj1bkmbMfMg9XwoO1GU27tQEbvNzIPV27oS+Qs3dFyvbR5Yf7LeB3vrLZ/RI32vr7eux6bUD3xV3Y/fQJqdn/DHlNz3P1DUxTauXKgT0bJTv9Xz+5JNP/O+7u3uXaUrT5bHU6D2gd4Xu67uOi07rZwAAqE1qphukWjU0I5daM8YXty9nuBuYWLDJ1UMfpIUJHqKgNjK9uNUqoBd3PLAKdjluyJ2nry9v//7f//sr3dEUsKlWfcAFCOPjE+449f6FfFtN7V1f2HFKOXYorZ+fInfxjQJglSdXtLxoO5E5gSZToOr+XdtH+ShBlbQmmtD2OtdNi1jLfvijH9ni2pa/B7T96emZD1B1bAWIpR6DmYTSqq6Pc0PXl84I1t3Z4sfXecEWc0a4ztv8fNt2/nv3n4RxNIHKyZW1yjSZitYr/OxlvR+vFu8CGQSyWr1V2aLxoEmtIBIDEti/9Eu/lJgXX/nKV+y5E2yt7R22cCGWg1Wq+6PSrEXC5bPeXIv/OTzY58fSxvMhcJufA3fd7tA9ezUmcsE9o4dnVz48oycXfZdhfe7HdbrtwjEkcjSJSqhY03NPE6uoC3gh2l7l/Rvf+MaVPJGI/vGPf2yra+uXFWlpuzyWElXkSSQWzuR7G2n9DAAAtUnVizWhgCPU3GqSB61LpgDNr4PjTEHays6JD+AuWzgu9hW3jRvSVMyqTf/oo7+7EgQEk3j74Q9/ZA2NTS4gm/bBUTm4beyQ0jEzPe4Xoc11t9vIcL9fCPg+gfJT5D6+0efybzQrXPT7fVustJ8qFjZ2D+yLL4qPWdOi6ms7xy59UdmedKJAZUAVEGURav56zZcvdWdLEmqy4b63trS67u9VXVtAv6Xxc5rtvGC+6JKqrqcK/jXrpYSbKmvmVzZtanbBllZW3T19XSDfhI69t7dvP/vkk2v5EEyVNw0Njb6r9cTklG8dVV5UqvujxtEN5LttcfRnV/JCa53lezvs2AnSwlSl8bNIu53Q/aCKi9DqKREd1pLUzzCuU99Hk9tcPYJ8p0oNzbKpZ53Ktn7XZ8o/ba018/7jf/yPifnyy7/8y/bi5UtretfslzmpFBKZ6nGha9ASDhr3ODY6aL09Hd70u5ZniV/+XfwMAAC1R22INWd+WxfY6mWvBaQv18FxPzXjnYSan4nPxWWFQdPt44bqrLWtzX7zN38zMRCQff3rX7ehkdHE45eDwrFDdS4Y6HMvfwVpmmhBs+ApkM73tNjGxsZlGi99RyBwjYf65qHFQHkUxvoMjc/YD374w2uzQb549coml7d9oLuzf+wXfm+Idb9Ti9FDZwe8jeCn8fFRv2xBXBTELd/TZMvrO86HF7P9Xfgn7H+bn9Nsp2PKwnaHbhv5T6b7X+eO7tHI7oIExPrmtu9eV3j/B5OgVuuOxl1pPJwC8od2eb4vurzp6XFbSBgjJtOYwoF87l5+Fmm3E/rbfewry3aPzvyC36pAi9YqO/F/63N9r+0K948jwaPWtbDkRWNjk424Z2+98/Ov/uqvJuaL7K//+q9teVUTwVxPXzlRTw218Cm9Pd0tfhZMjauW6fd8b3s01u5ie/1M62cAAKg9akKsibC9glsFaBJtYYY7jWeL9nXbuQ3jQdqt44ZyOevLq+tMnf3ar/1aYhAg05iiru4ed56rgai6vpQbnTrf1+WDscIATbNl9uXUHU0D7yNfEggkU2nf6BxHx6c2NDZpz968s57haXvb0OTT0tT0zppaOmxyZc+3SqxuH9rLN/XW2tZ+bRyWxENhlz61sGqmRrW4quV1dnrCXVe6FqZCVI7U9XNhabXoWocax9bV2Wbru8f+/oz7MK2f024n9LfElb4Lk6jod/cvKveFO9xCdDznt6NTP/tmUiunTGLhi+cvL8bERWsoPrZYTkLXp+vvvGXNOXVN3ds/ivwS9nWWxs9ptwvI7zqPKtX8WmXu+eyf0c68kHaf63ttlxZ1ZdQ4YrWY6RldrHuqTGM7ZxeWXRqvt9yVG9/C1tnsK9EK80Sf9fW02+mZlu2IfHkXPwMAQG1RM2JN6PMQoEm0yRSkKVjz++nFV7BzmnFDOsbo+IRvPUsKAmTf/OY3bWxqzqczpFFjQjQ+oZy16jrvxsamDfXVXwsCgq2M/tBGR4d9OoO/CASuo+uvlG9UdtSdsd53qau3z1812PTKjl+4emrtyCad6afGYqqLn4LepZV1LyTiQi1YGHsp1lZXohbW8e/7wFAtr/PDnziB3+nOG43PvAu6p3SvKQ0DA33+WPHyJqHWl2u00dnVy3GjcR+m9XPa7QJKlz6/YvrvHmg3nUdpzw+N2u///u9fewZIwP3d939gn79ucvlVf7no9uRk+ceq6Vl3fHLmxVo8LwptoKfBVta3fP4F34RrLXV+CH3uvvbb6Lnsn9EXz2d9Xmy/m1C69Yxuam6+sULt+z/4ge8Gqy6y9z1XKdB5NZ5xZvBZYp7IZoae2dzCok+n3kZ39TMAANQONSXWxGWA5n7xv4e//bd3R8dRMLGxU3zckGpzP/3sc6tr6baVzd1oTI7bVxMKKFAu53gVnWZhccm/7JOCAJkWCO/t6XT+jCa/kBEIXEfXX+4gSSJN5ebDTILR9PKv6hr9BDpax00taTJNpqPuvuriqwBUY6QKW9XiFtZs6+1uTVyPcG3sR37c2V2vL9wj6mq4sn1sAyOjvsVG0+XLOjpabXhmxaU5mkCiMFhO6+e02z0G4dw6p7pVv2vrtL/5znd9V1R1Tf31X/91+8nf/9R++uyN/fRFgz1z4lrj1pQfd5kFUuNQJZgfiiph5JuOFC1ra9sHflt3eZfPy8fMj3COD8/oaHv9fh/8tbryt7S2aX9bpIuq8ujZ85f2srHd5pfWXBqjNJQbXaP8PDY27CvNkvJEpu9GRoecP9/budvpPn4GAIDaoObEWqkJgai66mjc0Ed/9/0rtbea/e2Tn39qnf3j9vpdlz1/02AjY+N25IKu+NTd5ZgJzvvM/be4vGojRbqjyTS5QH9/r+8eeur8qQWVCQSuU84yeF2kRfbmYsbC9o6uy0kzJNo0xkdLA0ggaZyPWlE0sUV83yTL5br9GmhJ5ULW291sO7v7V8TUbQQ/qSubn+3PibKJpV0bnl3zU+ZPrh36FkGNH1X6w7ikQNj/Nj+n3e4xUJCt8ygPwqyzI7Or1tjc7kTAK/vsxVv7+xdN9pPnjfbJi3o/Zk0Tv0hsy++3Vdisra36VjAt7N/pxK0mm1D3yftcV0jrsfPN2NjIjWPWenu7bdOJT12Xnh06nyyNn9Nu99gEsaZKi/p3bfaXf/XXfuIdPZ81tvM3fuM37MXL1zYyt2aNHX32/FWd9fb12+HR0cURykfw2cTkhC0O/yQxX2T6Tr05NDMmFWoAAE8bxNot6FxHJ9G4oc8vxg3VN0XTX8saXHAwtrjlZ5xc2z2x0ckZq6tvuDLJg6xY7frKyrINDvT4QE0/V93f972+yGdmW3sHlutuSWw9kU0PPXfpnPWBs4IciVECgetE/nx832jcTZiaPMkk1jSBQpSW9z6wljCS6Dl1Ga4gW1Ocq7udBF+S6Tu1vPXk2r1YTyoXMo05W1xZu9It7ja0XdSSE41DUldHzciqLpqalXXeiTdNIiGRo/FqKm9x4aLf0vg57XaPhZKsoNnPOutnNDyxodkNe9c3Ye96J6ytf9K6BictPzJpI+ORv9WVNeRB0tg1HXN+bspG+99caQHTZBP9Pe/8jJU3ibwktLl8onKyuX/iBdnCyPXZIHOuLMyu73vhr23dLt6PsmrIj0DIl83dQ3v2ttnq23r9otpKk8Z2NrfnbGp13+eXrnV+adWaW1r9JEzT09M3zgaq72amJ/yzWWMuteTBrnuO3/f6lJe6t9T1dKCn8UqexK2/p8FmltZ9WaNCDQDgaYNYu4Gr44bq/DiUmZVdm9048lNO+3FDWhrABaTqnubFjwtYd3b3XJB9fexQvHZd/09NjNjEwGtfw61ATT/19+T4sA9ALjZNjTb3weTxuU3MzPup0gu7QK2Mfmx9fTk/C1to5UCsJaPrL1cZ1Hp/mgiksMwEm5ub92UnjDGUuX9RObk4xk1oG+WzFgG+qUa/L9dsyxu7vlz460x5odrMHd6Xfz8jqxNmmqFS3TQlbHYOo0kkIqEWpTvg93Xnus3Pabd7LML55RuJUnWH1H2kVrYl91NjB9Xa+WEtx2i/Yuj7nZ0dG+xNDtr9WL+eNjs6PnHbpr9CbeqS6fNCi7Ivbh7ZwPCw91muq9n/7OnN2aQTMItbx15EqxXO+9HtpzOl8XPa7R4bnUtipr2rx143trnn8aHNuGd0fGynKgxUFsPSAGfn5zY5Oeknl1LaNUNuIdpmsL/bj8HUs1n54Zc8yDXayvKiz5M7ZItH++geUDqGRodtevDza/muzwZHhn1LtJ7lUYUaYg0A4KmCWEvgpnFDCsb00lfLgWpq9VNBqT73XYnemw8CCoPtYDqu0r+4MGczQy+uvahl+nzBfe8DpztcbPCZgkUFyCNT89aTa7WB3noby7+03u531jfQ74KXQy8ufeDiEoxYSyb4s1y+0YyNGleWVG4U1Ad8ubj4mRZtKyG/fEONvsYy9vR0+jXbJKzuep0KRLWPhIruBXWzVVn0M/05v+n8EpuFx9TfafycdrvHxKfB/afz6tpU4aF7X6JIgbWuW9efdJ2FKE8mJ8ZuXO5gNP/GllfXfAXQXa5Rx1Y6lKbQCijRMjK/6UTaoa9skoDRs0vbqIVW+/h9nVVLfgile3p6xt7U1dvKxravKJCI1jXLJKZ1nVHl1NX0abbe3t5ef49p3TZNMCX0/chQn22MJ48rG+htsM2tHX/u4Lc06B5RvujZK3E/ODLmBfRI32tv+r3ffaYKQb1nfN649OreqbSfAQCgMiDWYtw2bqitYNyQ1nNToKZadn2uF+rp6W1jh+pc4LV745Ta+txPDKBrvVMgEPlMAUkYVzO1vGtD0ys2MDFvowtbPmAL3YF8S4cTlwQCyVSiDCqYUzlRt9l4uQkzOd4XlQ0FiSq7w6MjNtb/6kr504yQEvZas03BvYTIfa5T2/tyKHP7qyJAP90/f236rhB9lMbPabd7DPRsCN0YdS5dT3TfSIhGXVL1t0+L++629Oh7+WigP5e4xEawucGfWmeu11rbO70ATIs//kX6lOcSK6FrqnoC+OUenBiIBEzUlTYc/cO+2c2POJrFV7OgzszO+TKu55quS6Lt8hntRM+H1uLrqdNswFqqRS1tU9PTvqtjX+5dYp7IlGf9fo0654d75IveF0qf8mR8cdsGp5ZsYHLRRp2Y1iLhenb7bsNuO+UNz2gAgKcLYu2C+4wbkikAUIDg0+UStru75xem7uvrs87OTr9AdeGx2to7/CxsSUFAsO6uFtvZP7rz9SoNSo9aNRSo6KWv4EwBgCZ5UJCmYFwCU9fhAwH3H4HAdXT9UX4/nm+2t3ecELguxOLdInXuhxKv0VfgPjw1bx3tbb4ctre1Wi7XaWNOzC+48hLGMKls3Pc6td8Vu+FA+iqNn9NuV0riFTgK6AO6niA+3emjljR9dvH9bYT8GBkZunFWwNG+F/bybaO9eF1nh0fHd7pOnUO+OXZ5qXxX8K+um7r/JRT0DEgSMPotjZ/TbveYKH8kstQ6pnMqH/zzzFn8Ge2FtNsgfp2FaHyaekXU1dW7Y7bZWD6554MsVKhd+u/iGLeh0yuN4V5cd/lxOb7TPZ/1U89s5VNo8XSHr7ifAQCgciDWYqQaN+S208tW6QimF/BtadKU3Ds7u7bqAr5pd5yO9tbEICCYpjvf2T/xL/Ub4otrROn7INgUoCk4U5cbBekK0hQEBKGmofXl9nO1oOt/DN+cuwBMkxbomBqvpNn/hof6fDfIeF6HbpHqnvVQwrUoeFUZUEA4s35kY4s7NnHRLS5asy1qbTk8PvPlvByk9XPa7UpBUit7sQXu7+Mm7aN7dHF1w4b6GhKfARoj1dHeZJ++bPCzS87NL975OoNgU9CvvFdLjfym33V+95XfJo7+ylp+FEP3hirEtMi00KXoei6f0e5vnx597re4GW23t39gHV05G8i9SswXmSaAyXV3uGsO4xPTHD1CW3q/uf2CiNazWfeefurv6BkdXQPPaACApw1irYBHHTfkTOlXwJTvK979SZ9rEhC9tFVz63axvb3rM8kVQ+fRPgoitL8CCr389TMEad6PLvEhTQQC13kM32g/dZ8qXDhaExf09bTb8cnplWMrj5JmEbwPKqsK2lUWJNiWd059q6tEWtQt7sSPvTpwQu1tXb1tbm1d7OnK0/v3j7a4e1o/p93uIRTrCt3Q0HCxRWlQXqjCRP5Wt9SJgZdXZm/VYuW5zjq/wLaWAvjiVZ3levvudZ3aR+eTn+Kmz5KOp8/0fRby4yYWFhZ8d2FVsiWhNHi7Q2LCNe0dnlh3V2vRrupLIz91+Tbq8u/M5+NdziHCeYKIlu8086N+6u/Qfdin/2LbSvkZAAAqC2ItAQ0yV3AWD9ZkDx435Mwl37+MV7b2rTfnrmv6u1eCAP3d3dVsM6t7XqxpqvP+gUEn3u7WuqJzxQO0aDyN+9t9Fg/S9LNSfs46pfaN9llcXLDpwS+u5HmwjfHv32tR6rR8uJ5o8g+N5VGXx8tuce6zECiqy6+6l6nMbznR1tbWVpIWviTS+jntdvdBIm1sbKzoeNOurq6LLUuD7kH5WcJZLSrDEzPOx61+EqDO9nfu+prtZy/f+bXbfv5S67bVeQF9fsM087chH8WtGPqu0vlxG6o40PgydVssJdE1mb+WmYUVG+xruCbYVLHS3d1ui1tHfm03tZDdpxVae/hntMyd8/IZLf+5z8IR9bNSfgYAgMqDWCtALRnd3d3W3t5u6+vrpR035EzpV0AsITa9vG25XIf19zS6AP6Z/9nZ2Wo/ffHOuodnbG3n0No7c/bmbZ1LR3N0kDsSXvpxi6O/CQSSKaVvfD44y/d1+ck84sFf3Nrb21z5OPei/q7nSIOOqWOHCQtUFtXSq58fWlwlXs599zKJtCBY9PdjoDSl8XPa7e6CrnVqKuqS2tURrc3V3trkW2w0sVC49tHR0Ys9SkO4FlXGXHZL3Tiypu5h+/vnTfbxF0324y8a7GcvGuzZKy2wXe+fA2tr69EBHpG0fk67XalRBYKez3pO36X7YRrCNemeUCXG+OySb2HTs3ly4Ln1dTdaW3urE9LNNuWe3+oyHHWDjPa/D9q10OLo70r4GQAAssGTFWthsdP+vu4ri52OT0z4VrXQ9ayU44aEamDVsrF7FC0BMLN+aMOzq9Y/NmtDM6t+Wu3OoRn7+csGe93Q7JcMCGu2hXEZpYRAoDil9E04VndXu+/iliTUZJpYRouaS0yVOhAN6Kg6tjuFN6VLprIZzri0tHStK2Cly2Da7dKifdSSOTN0da0rtZx0tjf4GQY1sZCue35+PtqpRChr5W8F+mpdUwvnxOKWPW/qtp88b3SCrcE+edno13bU5CKv30TPAE1e9Nik9XPa7e6LKgwmxod8BUdvT4eNjQ7aiSt/Q0PDvmxqHHCpifJFXVS/9F1UtQTA5Mqee0avWf/4vI3MrfulT1639Nrzuhbb2Hnce1U8tp8BACDbPEmxFl/sVK0cYbHTvu4Ga2qst8VFLXh6sbFDL+KSjRtypmtQS8b24blf+FTrHWkmMM3YqDFEEwsb9vxNtBC3xFoIGNXSV2oe08/VTil9o/KkwHxoMO+7O8bFQbAww5wWkJag9+LpETNBx9bhgwnNiprL5S7FWaFVsgym3S4N2v6mtQ71XGhrbXIiKZoJNj5etVR8uJ5orJKeB2rNWdzYt+HJBWvtzturtw32ygu1qKUvqXXz4ODQVlZXbdEJbFU4PbTMpPVz2u3uw4HWP8u1+0X8tf6fuoevjf3Acl0tVt/Q4Cdqeiz0vJcA0/WEVk+N69SEPLMX4zuXto6ssbXLmlouFi2/2PcxeEw/AwBA9nlyYk373rTYaT5Xd6/FTu+CjqtgQIJNYx40fbNa2fzYlalFe/a64UpterDp6emLI3xAU7+faFKKe6ZVuxEIJFNK30h4abKXpbUtG+hNXpR6ZvBTGxod8wGiyka580CzHd40G6osqQw+9D5J6+e026VBae7r7fJCICkvZN0dDfamzpkTSqrgeQyUbpd8L+RVPqLZGqNuqRoLdeo+U9dHtSaFZUB2d3ejfd1+83MzTtS02ET/K1d+1JW6ycbHhnxXwcd+JqTd7q4o7fm+zmvjeWWqWNPC0V4gPbTgFUGHjVo9o7xQl/VoRt1otsYwvnP34MhaWtuso7Oz6Hhm9eDQM1ozwN6Xx/IzAABUB1Uh1jQ+Ye/o9MEvKO23f3DwKIud3gUdVqZz6Jr08tVMYGvb+/a2sTlqUfPjZa6OmwldMfXin41N/d7V2eq7CqlV5K4p1vYEAsnEffPQMhjEmp/9b2zU5Vu9L2sKPvVTi1T35XttfuOoYmJNFJsNsbAMrqwsW6673ZcZme+iVrD0QFrifr6pDMa3e0h+hON0drYXne1Ppqnb39Q32ruWtntdV1p06Oh5EF2LzP3zZUbPoPi5JdQ0uYY+mp2ZtKnBl9fSrdaoocHeaP9otzuhfZSGcuVHHO23tLzsx4cVXlew2cGf2fTMzIPOcxs6biTYdN9Gy6BIoKnLqsYZRi3fUUu0KjjUGh1/X0jcjw7nnV/a/DNaP8dGB/z9Fc/PNGjzNPkBAAC1SVWIte7unB/H8+BAwO24vLxq4/3XA5xgoSuaAutHDQbcgfVyd6fw51FLm+z07NzmFxavTOwQTDXrSs/QQM+1qd/VQpDvaba9/f0rQcNtaEud/8gFAAq4CAQ+EHxTijKoLFHgp4WIVUM/OrtquZ5uv55eT2+3DU7O+wkmNEamXN0gb6KYaNNEN9NTYzYx8PrK2Dt1Ucv3tt154WYR/HxbGQzbPTQ/Ql709nTe2LLWl2u2d+3d1t2b9/fpY+eFjq9TXFqR8+lzVTr1dLvnQUK6ZXrGLS2vROm+2C8t2r6c+RFHZX5ycsIWh3+SeF0ydSMeGspfzMJY3E8PRYfVsXU9svCM1u9xIawu8hrn3N/f77Z326hlsLfzWu+NtbEf2UC+0z/j75Jkbatz8owGAHiaZFqsuXeReym9t3z/gK1ubPuX831fUOGlu7K2YcN9b6+8ROP2kMVO74MOrzNcMf3n2NjYsN7e3stAWWNnZmembWboWdG097kgwQcDKdOtreSXvf0jH3ARCHxA11+qMhj8rBYzdatacqJM4xSn1o/8gtQaD6OxMOpupTxQUPjYZS8NcdGmVl5Nl66WgqTypxbCAbVKu2TfJeXBN7eVQf3uPnpQfsil0TG+tImpaZsevDq5SDCJuB4n5tZ2jmx9a9fvk/Ycj43KxcLiUtHngEyCZnio3y8PcNdipM3LlR9xwvFmZudtZvDnidclWxr52K9xpi6j9z3XXZD/dI4rpv9ibG9v+3tjdGzMRkf6vTBLSrtaPdUKfacy6yxNfgAAQG2SXbHm3kJ6cUswjU1M2uz8kg8KHhII+BfeIy92+hio5lZjVurq6q0n13Fja4DGQ627oCmtn4JfVtc3bGh4xAdAum75PgOXXlFKWQZ9wOdMIkxdqiTYVpxg0+QFi85Wdk79jIDqZnXZYnCxbxaQaJucnLK21ncu4Ewe7ynr7myx3f3DO/lI26Upg6XIj3AMtZxrnbl8/nortSYX6cm1+qnZJZ7LJQrSoPQrLTNzTtAMFBc0mjBpYKA36k7r9rlL2rVtufIjjvbR/bG2uWP5XFPidclU2Ta1sOrvlXJUqKVFk7xoLbyO9tYrC5zHTZ+rNf3o5OyaP4uhbdLkBwAA1CYZF2tRt5OllXX/kjp2L6n7vqC0j8aIqVbypsVOVZv+0MVOHwOlQl3M2tuKBwKy8f5XNre4fBHERPveROSXL21yesYFW4s+ENC+3s/ZuPSK8RhlUPvqeAqitXyDZgCUaFDlgFpzs1pjrvS4YmH9+W7fgpZU9mQDPQ22vLZ5pxYdf2x3zbeVwVLlh46he1trZGlWv353HI0F8uscdrRYLtdpY4vbXkRLVFdq/GASSoOeY0urN/cQUDfC4bFxL2jkr7sImugc5cuPgNKoY2ls2MiYutq+vPasU4tb/+Cg7y6s7aJydp+zlR6lY8r5rKOtuNCU+eU5dtNP+a8teEYDADxdMivWhF5EeikdHJ367h+HJ2f3DprCC08vuvhipwO99ZeLnfb29dj06oEPBEqx2GkpCb64fZxNoy2ubX0IMG9Jv74+c9FfX1/eNnb2/eB5BREKwrJy7ZUk+F1lsLOz0/vnvmVQaD8dU8fQcSXOFOCqpjzye7RN1lBQqfSOjY36bmhJZU8msbO+e/hhzGeKi9Emacug/g75cd9nQhAFqrhZ3z/13U/VFVVraY0v7frfNVW7xhZqjKHOl+Y6ykFIu4RKX18uUThr0pqeXJstbOzfS9Boy3LmRyA6b5QvmnVxaHzKj8sb7quzkb7XfhbI/pFRP33+6m4k1qK8uc/ZSouS4C7b38eaTOSmljV97ysDQ+vYLcnX19pO633yjAYAeHpkXKyplcG88JibX7LxiUn/krrPC0r7RC/Tq4udDk2vXC52qiBtYevEizm1ckTnysbbUC9mvdxn5hf8zIFJgYC6b/X2apzNsU9/mqBJ1zfnjjk5NeO750nM3tfHtUi8DE5MTvua7Yf6R/tqd/1UmYwsKmsPOe5jonQpMF7b2rN8z7vEYFTjdPoHXIC/f+YDyrRB+13KYDw/7vtM0KbyuQSlWjd1v4e1tLTOocSbhJoCas0EqG3vcPhHRenQ9Wr22IX1PT8j5/TgZ160ySSkc12tfoFtreEosXlnsVbm/AhoF5UZHcuP63R5Mr64bUNTyzYwuWijC1sXz+hj32VY291XGJaaeNrHxkdtYeSn1+4P2cLIz2xodPROM77Kx+sbm77lkmc0AMDTI9tizZmLM7xIUW1rXz5vWzv3H+yvl55ecjpWscVOFaSpVU2B3H3PU2r0Ug5iTV3mhoaHfBch1aCHIMAvGNvdatOru5di87ZAQMc9PDqynt5eFwRE3fAuW0QutnnqyA+hDO7sH1lvX58dHp9EZaMETtIxSnGcx0Zp9D5w98bY1LT15Zp8t2GJNk1so3FfuVyHza4f+vJ3mLqy4G5lUJ+V4pmgbbWPjqMWGr+WlhMAEpphHS0JNZ+ODGWQUqI0KWBXWuecv/tHp6ynp9vPKto36J4NK3t+oX19Hz0H0vumUvkR0PklLtV9U+nXM3p2I5qARxPyqGuqyldoVctK65KSIB9JgG3snfju9LonQld7/dTfffmczW8cphZrkT/O/ZIZW7v7t+YHAADUHpnvBqmXsQSWXmybO/vupdV/p9kO44Tj3bbYaRZfhkq7ghMJSdWYD03M+IHqGmsj6+3P+5ZCCU5dh4I5BVE3XYN8ODw8bGvrm357+TgKgG7e7ykRLzPyz/rWjvUPDNy7DFYrulQF0bo/dL9MLG76bsNtba3W3d1h+eFRm1o7skVX/nRffRA6Fwcowl3LoI5XqmeCtlcaw7F0fgmOkIYo/Xc75mMTXX/UKqhxjsoLVTipxUn+D104V3a1BIS62qXLh0Al80NoD51L4k+CTWVJz2ZNxqNrzeozOvKD0v2lr1Bb3NRYyFHraG/zz2f9zA+PuDw69AJU2+gavV9vuAj5cHR01FbW1n1+qMWaZzQAwNMi02JNhIBKLza9qNQNbWx8IgoGLra5C9onCr5vXuw0c0GaM9WQ64W9ue+CAffCV23zpHv5T7ogTVPAqzZdAU281rkY+mZmdtbZXBSoXtbY6tqjbSAilEGNLZOfllbWbGBg0E5Oz55MwBSVv6hFJ3RRU0tHXCSoC7EC66j83T6T6n3LYCmfCdpe59Lx4qZ7567HKhfh+uUzCTL5XPmhZ4KWhNDfWqtP30e+THcl2qrS+SG0j44XBKAEtMqUKtj096WQjjbPDPKR0hZaBcNYSD2fZdE9cmzrFy2e2vamvDl//95GnFDT2qA+P5wpP6JurRcbAQBAzZN9seYsiCu9sGQLSysuWB6w3b29ewcDetnphR+CApl+z2qQpvQGP2i8isZsLO9ocoQTP85GLRoK0tJ04Tw4PLSh4WE/LkU1wcGv8sFN+z1V5A/5RUFS8NXG1o7vKraysnpZnmodXaN8EFql1XqjcqcAVGJBrdS+/Dn/3BZMP6QM6ruSPxMuzhks6yi98rHudYkDibNoVtFI2Kgi6i5BfebyQ+b+i57Rrty5n7oe9+8yr7KG0qT0SrSGsZAS0Ho++2f0xT0S5c/N98jG5qb19fXZ2saGP17wq3x8270FAAC1RebFmoi/BMNLa3N7x/L9/T7AWF1dtZPT0+glfoe3WHjpXzH9l1GUtOAH1TYrMFMrm4SbgmcFbZdBQOxC9OvZ2bmtra/7LjVaaHt9c8tvG/z5obtUhh1QQeQV557LMqha7oPDYxsbH/ez4E1Pz9jm1lbmy9BDiHwQBc3ygYSZBILKnsSCyp/8k1SOSl0GtUW4F8L+pXgmVAvRdUX+Un7IjzL544OokS8vdihAn1dDfmjTQssy8pVzg/eD7gfdG+q6KdMyHZfPaLdN/Frkk+2dHZudnfV5oRa1vf0Dfxw9a+6aHwAAUDtUhVgTej/5YOAiUJTppbe2sWnj4xPW1dV1OX6rlq3FW5u9a2m1puZWa2xuuzR91uy+a2lpubafpp0fHRuz1bV1Xzur1o/gRwUEoasTcUBxLsug89eHMvilC6qObH5h0Y/1KfR7rZkvfypnzt61qNypDEamv/V5UvmTlboMXubHE34mhPwIz4X430nbx438eBxT+dd90Hx5f4RndPSZv0cS9hsYHLS5+flLkXZFODufRkItfX4AAEBtUFViLQoGzL+4VNuo8RGXLzP3YpNprEzoMlOrpsDq1F+vatQlHqJA69T91HdXtne+kE98MOYDgCiQCr6Tz6KuTi4QuPA1JPOhDH4QbPKjN/e7/Kuy6fNH5TDkQY1ZKGf6Gcqev/eSyp/skcrgh/zgmSDz/neW9N0VIz8e3eL3R9yS7pGQF/JZEGj+mRLyw30un3r/XvgaAACeDlUj1oReVFEwoBffxUvNmcbQyKLg4MOLrtZNk6OoO6Q393vSNpEFP0WD9PV7FDxFQQBCLT0fAtIo6FJwJf+GMigfP6Vy6MvghSV9/8EepwxqH54J97HgJ/LjMS3dMzr4KMqLeH7oGSNfyqf3yQ8AAKh+qkqsictgwJlqJS8DgouXnLdYAIk5iwUAMgVkqtkmCLgf3mfuP/lPfpQ/L1snnFEOE+wRy6D25ZlwRyM/smUXeSE/yUIL/WV+PCRDAACgqqk6sRbQu0u1vyFgDt1IosA56pKGRRZ8Ih+FAMDXnHuL/Al3R66T/+RPtUaEwFSmroGF+fCUrRxlkGdCeiM/MmQSZ+6nTH7Sc0Q+Uz6UKCsAAKCKqVqxJsLLTD/du82/4Nx7zv+OfTD5JArGrvoMSkPkzyi48v52/1EOr1q5ymD82P687j/y4rqRH9mxeF5cCubIfQAAANUt1uJcBgVYcdN/8KhQDm8x/VcmyIsUpv/KBPlxi+k/AACAAmpGrAEAAAAAANQSiDUAAAAAAIAMglgDAAAAAADIIIg1AAAAAACADIJYAwAAAAAAyCCINQAAAAAAgAyCWAMAAAAAAMggiDUAAAAAAIAMglgDAAAAAADIIIg1AAAAAACADIJYAwAAAAAAyCCINQAAAAAAgAyCWAMAAAAAAMggiDUAAAAAAIAMglgDAAAAAADIIIg1AAAAAACADIJYAwAAAAAAyCCINQAAAAAAgAyCWAMAAAAAAMggiDUAAAAAAIAMglgDAAAAAADIIIg1AAAAAACADIJYAwAAAAAAyCCINQAAAAAAgAyCWAMAAAAAAMggiDUAAAAAAIAMglgDAAAAAADIIIg1AAAAAACADIJYAwAAAAAAyCCINQAAAAAAgAyCWAMAAAAAAMggiDUAAAAAAIAMglgDAAAAAADIIIg1AAAAAACADIJYAwAAAAAAyCCINQAAAAAAgAyCWAMAAAAAAMggiDUAAAAAAIAMglgDAAAAAADIIIg1AAAAAACADIJYAwAAAAAAyCCINQAAAAAAgAyCWAMAAAAAAMggiDUAAAAAAIAMglgDAAAAAADIIIg1AAAAAACADIJYAwAAAAAAyCCINQAAAAAAgAyCWAMAAAAAAMggiDUAAAAAAIAMglgDAAAAAADIIIg1AAAAAACADIJYAwAAAAAAyCCINcgEHblea21txbDMW6crq1+6Mvul/gMAAAB4RBBrUFEU8MoUBP/zvxzAsMybyur5+y8vyy4AAADAY4FYg4rypYt2Ffgi1rBqMZXV47P3F4INtQYAAACPB2INKobi3PfuvxMX+CLWsGoxldW943NXbr/05Re9BgAAAI8FYg0qhoJctU4cnSLWsOoxldWtgzNfbkN3SAAAAIDHALEGFUMx7rn7D7GGVZOprG4GsebKL1oNAAAAHgvEGlQMBbnvEWtYlZnK6sb+qS+3Kr+INQAAAHgsEGtQMRBrWDVaJNailjXEGgAAADwmiDWoGIg1rBoNsQYAAADlArEGFQOxhlWjIdYAAACgXCDWoGIg1rBqNMQaAAAAlAvEGlQMxBpWjYZYAwAAgHKBWIOKgVjDqtEQawAAAFAuEGtQMRBrWDUaYg0AAADKBWINKgZiDatGQ6wBAABAuUCsQcVArGHVaIg1AAAAKBeINagYiDWsGg2xBgAAAOUCsQYVA7GGVaMh1gAAAKBcINagYiDWsGo0xBoAAACUC8QaVAzEGlaNhlgDAACAcoFYg4qBWMOq0RBrAAAAUC4Qa1AxEGtYNRpiDQAAAMoFYg0qBmINq0ZDrAEAAEC5QKxBxUCsYdVoiDUAAAAoF4g1qBiINawaDbEGAAAA5QKxBhUDsYZVoyHWAAAAoFwg1qBiINawajTEGgAAAJQLxBpUDMQaVo2GWAMAAIBygViDioFYw6rREGsAAABQLhBrUDEQa1g1GmINAAAAygViDSoGYg2rRkOsAQAAQLlArEHFQKxh1WiINQAAACgXiDWoGIg1rBoNsQYAAADlArEGFQOxhlWjIdYAAACgXCDWoGIg1rBqNMQaAAAAlAvEGlQMxBpWjYZYAwAAgHKBWIOKgVjDqtEQawAAAFAuEGtQMRBrWDUaYg0AAADKBWINKgZiDatGQ6wBAABAuUCsQcVArGHVaIg1AAAAKBeINagYiDWsGg2xBgAAAOUCsQYVA7GGVaMh1gAAAKBcINagYiDWsGo0xBoAAACUC8QaVAzEGlaNhlgDAACAcoFYg4qBWMOq0RBrAAAAUC4Qa1AxEGtYNRpiDQAAAMoFYg0qBmINq0ZDrAEAAEC5QKxBxUCsYdVoiDUAAAAoF4g1qBiINawaDbEGAAAA5QKxBhUDsYZVoyHWAAAAoFwg1qBiINawajTEGgAAAJQLxBpUDMQaVo2GWAMAAIBygViDioFYw6rREGsAAABQLhBrUDEQa1g1GmINAAAAygViDSoGYg2rRkOsAQAAQLlArEHFQKxh1WiINQAAACgXiDWoGIg1rBoNsQYAAADlArEGFQOxhlWjIdYAAACgXCDWoGIg1rBqNMQaAAAAlAvEGlQMxBpWjYZYAwAAgHKBWIOKgVjDqtEQawAAAFAuEGtQMRBrWDUaYg0AAADKBWINKgZiDatGQ6wBAABAuUCsQcVArGHVaIg1AAAAKBeINagYiDWsGg2xBgAAAOUCsQYVA7GGVaMh1gAAAKBcINagYiDWsGo0xBoAAACUC8QaVAzEGlaN9tTFWkeu1/sAw7Juna6s6v788qndpABQUyDWoGLo/YlYw6rNVFafolhTwCvjXsWqxVRWz91NGsouAEA1gliDiqF3J2INqzZ7umLtSx/4cq9i1WIqq8dn7y8EG2oNAKoTxBpUDMQaVo32FMWa4tz37r8TF/hyr2LVYiqre8fnrtx+6csveg0AqhHEGlQMvTcRa1i12VMVa2qd4F7FqslUVrcOons1dIcEAKg2EGtQMfTeRKxh1WZPUqw5O+dexarMVFY3g1h7IvcqANQeiDWoGHpxItawarOnKta4V7Fqs+hePX1S9yoA1B6INagYBIBYNRpijXsVqw57ivcqANQeiDWoGASAWDUaYo17FasOQ6wBQC2AWIOKQQCIVaMh1rhXseowxBoA1AKINagYBIBYNRpijXsVqw5DrAFALYBYg4pBAIhVoyHWuFex6jDEGgDUAog1qBgEgFg1GmKNexWrDkOsAUAtgFiDikEAiFWjIda4V7HqMMQaANQCiDWoGASAWDUaYo17FasOQ6wBQC2AWIOKQQCIVaMh1rhXseowxBoA1AKINagYBIBYNRpijXsVqw5DrAFALYBYg4pBAIhVoyHWuFex6jDEGgDUAog1qBgEgFg1GmKNexWrDkOsAUAtgFiDikEAiFWjIda4V7HqMMQaANQCiDWoGASAWDUaYo17FasOQ6wBQC2AWIOKQQCIVaMh1rhXseowxBoA1AKINagYBIBYNRpijXsVqw5DrAFALYBYg4pBAIhVoyHWuFex6jDEGgDUAog1qBgEgFg1GmKNexWrDkOsAUAtgFiDikEAiFWjIda4V7HqMMQaANQCiDWoGASAWDUaYo17FasOQ6wBQC2AWIOKQQCIVaMh1rhXseowxBoA1AKINagYBIBYNRpijXsVqw5DrAFALYBYg4pBAIhVoyHWuFex6jDEGgDUAog1qBgEgFg1GmKNexWrDkOsAUAtgFiDikEAiFWjIda4V7HqMMQaANQCiDWoGASAWDUaYo17FasOQ6wBQC2AWIOKQQCIVaMh1rhXseowxBoA1AKINagYBIBYNRpijXsVqw5DrAFALYBYg4pBAIhVoyHWuFex6jDEGgDUAog1qBgEgFg1GmKNexWrDkOsAUAtgFiDikEAiFWjIda4V7HqMMQaANQCiDWoGASAWDUaYo17FasOQ6wBQC2AWIOKQQCIVaMh1rhXseowxBoA1AKINagYBIBYNRpijXsVqw5DrAFALYBYg4pBAIhVoyHWuFex6jDEGgDUAog1qBgEgFg1GmKNexWrDkOsAUAtgFiDikEAiFWjIda4V7HqMMQaANQCiDWoGASAWDUaYo17FasOQ6wBQC2AWIOKQQCIVaMh1rhXseowxBoA1AKINagYBIBYNRpijXsVqw5DrAFALYBYg4oRDwDb2jv8ixXDMm+urG7snz5Zsca9ilWNPcF7FQBqD8QaVAy9OM/df4fuRaoX6sL2iU2vH9nk2pFNrGJYtkzlUuVT5TQEgCq/TyEA5F7Fqsme8r0KALUHYg0qxpfuzXn+/ks7Pntv24dntrxzYnObxzaz4cy9aDEsU+bKpcrniiunKq8qtyq/Kse1DvcqVlX2hO9VAKg9EGtQUfTyPDv/0g5Ozm3r4MzW905tdffEmX5iWJbsxNZc+VQ5PTh5b6fn759U8Me9ilWPPe17FQBqC8QaVBS9P1XjeeqCQHVVUSC4f+zMvWAxLFPmyqXKp8qpyquvqY+K8ZOAexWrGnvi9yoA1BaINag4eom+//JLPwD8/L3ZmfsFw7JoKp/uhy+vTzH4417FqsWe+r0KALUDYg0ygbqo6IWKYVVh+u+Jwr2KVZXpPwCAKgaxBgAAAAAAkEEQawAAAAAAABkEsQYAAAAAAJBBEGsAAAAAAAAZBLEGAAAAAACQQRBrAAAAAAAAGQSxBgAAAAAAkEEQawAAAAAAABkEsQYAAAAAAJBBEGsAAAAAAAAZBLEGAAAAAACQQRBrAAAAAAAAGQSxBgAAAAAAkEEQawAAAAAAABkEsQYAAAAAAJBBEGsAAAAAAAAZBLEGAAAAAACQQRBrAAAAAAAAGQSxBgAAAAAAkEEQawAAAAAAABkEsQYAAAAAAJBBEGsAAAAAAAAZBLEGAAAAAACQQRBrAAAAAAAAGQSxBgAAAAAAkEEQawAAAAAAABkEsQYAAAAAAJBBEGsAAAAAAAAZBLEGAAAAAACQQRBrAAAAAAAAGQSxBgAAAAAAkEEQawAAAAAAABkEsQYAAAAAAJBBEGsAAAAAAAAZBLEGAAAAAACQQRBrAAAAAAAAGQSxBgAAAAAAkEEQawAAAAAAABkEsQYAAAAAAJBBEGsAAAAAAAAZBLEGAAAAAACQQRBrAAAAAAAAGQSxBgAAAAAAkEEQawAAAAAAABkEsQYAAAAAAJBBEGsAAAAAAAAZBLEGAAAAAACQQRBrAAAAAAAAGQSxBgAAAAAAkEEQawAAAAAAABkEsQYAAAAAAJBBEGsAAAAAAAAZBLEGAAAAAACQQRBrAAAAAAAAGQSxBgAAAAAAkEEQawAAAAAAABkEsQYAAAAAAJBBEGsAAAAAAAAZBLEGAAAAAACQQRBrAAAAAAAAGQSxBgAAAAAAkEEQawAAAAAAABkEsQYAAAAAAJBBEGsAAAAAAAAZBLEGAAAAAACQQRBrAAAAAAAAGQSxBgAAAAAAkEEQawAAAAAAABkEsQYAAAAAAJBBEGsAAAAAAAAZBLEGAAAAAACQQRBrAAAAAAAAGQSxBgAAAAAAkEEQawAAAAAAABkEsQYAAAAAAJBBEGsAAAAAAAAZBLEGAAAAAACQQRBrAAAAAAAAGQSxBgAAAAAAkEEQawAAAAAAABkEsQYAAAAAAJBBEGsAAAAAAAAZBLEGAAAAAACQQRBrAAAAAAAAGQSxBgAAAAAAkEEQawAAAAAAABkEsQYAAAAAAJBBEGsAAAAAAAAZBLEGAAAAAACQQRBrAAAAAAAAGQSxBgAAAAAAkEEQawAAAAAAABkEsQYAAAAAAJBBEGsAAAAAAAAZBLEGAAAAAACQQRBrAAAAAAAAGQSxBgAAAAAAkEEQawAAAAAAABkEsQYAAAAAAJBBEGsAAAAAAAAZBLEGAAAAAACQQRBrAAAAAAAAGQSxBgAAAAAAkEEQawAAAAAAABkEsQYAAAAAAJBBEGsAAAAAAAAZBLEGAAAAAACQQRBrAAAAAAAAGQSxBgAAAAAAkEEQawAAAAAAABkEsQYAAAAAAJBBEGsAAAAAAAAZBLEGAAAAAACQQRBrAAAAAAAAGQSxBgAAAAAAkEEQawAAAAAAABkEsQYAAAAAAJBBEGsAAAAAAAAZBLEGAAAAAACQQRBrAAAAAAAAGQSxBgAAAAAAkEEQawAAAAAAABkEsQYAAAAAAJBBEGsAAAAAAAAZBLEGAAAAAACQQRBrAAAAAAAAmcPs/wf5iClzuj+p5gAAAABJRU5ErkJggg==;" vertex="1" parent="1">
          <mxGeometry x="340" y="400" width="875" height="458" as="geometry" />
        </mxCell>
      </root>
    </mxGraphModel>
  </diagram>
</mxfile>
